
        <svg xmlns="http://www.w3.org/2000/svg" xmlns:xlink="http://www.w3.org/1999/xlink" version="1.1" width="2815.2188951920375" height="3169.336474898769" viewBox="0 0 2815.2188951920375 3169.336474898769">
			
			<g transform="scale(8.46682374493846) translate(10, 10)">
				<defs id="SvgjsDefs3157"/><g id="SvgjsG3158" featureKey="rootContainer" transform="matrix(6.3004014813942035,0,0,6.3004014813942035,0.000046358657472104394,0.02629501308574099)" fill="#fff"><path xmlns="http://www.w3.org/2000/svg" d="M23.11 55.78L1.69 43.41A3.39 3.39 0 0 1 0 40.48V15.75a3.39 3.39 0 0 1 1.69-2.94L23.11.45a3.39 3.39 0 0 1 3.39 0l21.41 12.37a3.39 3.39 0 0 1 1.69 2.94v24.72a3.39 3.39 0 0 1-1.69 2.94L26.5 55.78a3.39 3.39 0 0 1-3.39 0z"/></g><g id="SvgjsG3159" featureKey="symbolFeature-0" transform="matrix(0.9865193922389648,0,0,0.9865193922389648,106.37688236554814,105.95403444485987)" fill="#000000"><path xmlns="http://www.w3.org/2000/svg" d="M48.3,88.1c-8.5,0-16.7-3.7-22.3-10.6c-4.4-5.4-8.3-10-11.6-13.8c-3.7-4.2-5.3-9.7-4.4-15.2c0.9-5.5,4.1-10.3,9-13.1h0  l39-22.7c5.3-3.1,11.7-3.3,17.2-0.8c5.5,2.6,9.4,7.7,10.4,13.7l5,30.4c1.3,7.9-2.6,15.7-9.7,19.4c-5.1,2.7-12,6-20.4,9.9  C56.6,87.2,52.4,88.1,48.3,88.1z M20.9,38.8c-3.8,2.2-6.3,5.9-7,10.2c-0.7,4.3,0.6,8.7,3.5,11.9c3.4,3.8,7.3,8.5,11.7,13.9  c7.2,8.8,19.4,11.6,29.7,6.8c8.3-3.9,15.1-7.2,20.2-9.9c5.6-2.9,8.6-9,7.6-15.2l-5-30.4c-0.8-4.8-3.8-8.7-8.1-10.7  c-4.4-2.1-9.3-1.8-13.5,0.6L20.9,38.8L20.9,38.8z"/></g><g id="SvgjsG3160" featureKey="nameFeature-0" transform="matrix(0.8412268953341533,0,0,0.8412268953341533,53.27442585391538,204.5877342556844)" fill="#000000"><path d="M22.08 28.04 l5.96 9.16 q0.2 0.32 0.22 0.72 t-0.16 0.72 t-0.52 0.52 t-0.7 0.2 l-3.6 0 q-0.36 0 -0.68 -0.18 t-0.48 -0.46 l-6 -9.56 l-7.08 0 l0 8.8 q0 0.56 -0.42 0.98 t-0.98 0.42 l-3 0 q-0.56 0 -0.98 -0.42 t-0.42 -0.98 l0 -26.56 q0 -0.56 0.42 -0.98 t0.98 -0.42 l12.72 0 q4.6 0 7.46 2.62 t2.86 7.1 q0 2.88 -1.26 4.94 t-3.7 3.1 q-0.16 0.08 -0.52 0.24 z M9.04 15.64 l0 7.88 l7.8 0 q3.44 0 4.68 -1.96 q0.4 -0.72 0.4 -1.84 q0 -1.88 -1.24 -2.96 q-1.36 -1.12 -3.68 -1.12 l-7.96 0 z M54.684 10 q0.6 0 1 0.42 t0.4 0.98 l0 2.88 q0 0.56 -0.4 0.98 t-1 0.42 l-15.12 0 l0 6.12 l13.36 0 q0.6 0 1 0.42 t0.4 0.98 l0 2.92 q0 0.56 -0.4 0.98 t-1 0.42 l-13.36 0 l0 6.16 l15.12 0 q0.6 0 1 0.42 t0.4 0.98 l0 2.88 q0 0.56 -0.4 0.98 t-1 0.42 l-19.52 0 q-0.56 0 -0.98 -0.42 t-0.42 -0.98 l0 -26.56 q0 -0.56 0.42 -0.98 t0.98 -0.42 l19.52 0 z M86.128 10 q0.56 0 0.98 0.42 t0.42 0.98 l0 26.56 q0 0.56 -0.42 0.98 t-0.98 0.42 l-3.52 0 q-0.68 0 -1.12 -0.56 l-13.88 -19 l0 18.16 q0 0.56 -0.42 0.98 t-0.98 0.42 l-3 0 q-0.56 0 -0.98 -0.42 t-0.42 -0.98 l0 -26.56 q0 -0.56 0.42 -0.98 t0.98 -0.42 l3.48 0 q0.32 0 0.64 0.14 t0.48 0.42 l13.92 18.92 l0 -18.08 q0 -0.56 0.4 -0.98 t0.96 -0.42 l3.04 0 z M109.612 10.84 l11.2 26.44 q0.2 0.32 0.2 0.68 q0 0.56 -0.4 0.98 t-1 0.42 l-3.32 0 q-0.44 0 -0.78 -0.22 t-0.5 -0.62 l-2.92 -6.88 l-11.32 0 l-2.88 6.88 q-0.16 0.4 -0.5 0.62 t-0.78 0.22 l-3.32 0 q-0.36 0 -0.68 -0.18 t-0.5 -0.46 t-0.22 -0.62 t0.12 -0.66 l11.28 -26.6 q0.16 -0.4 0.5 -0.62 t0.78 -0.22 l3.76 0 q0.44 0 0.78 0.22 t0.5 0.62 z M106.452 18.12 l-3.32 7.96 l6.64 0 z M149.656 10 q0.56 0 0.98 0.42 t0.42 0.98 l0 26.56 q0 0.56 -0.42 0.98 t-0.98 0.42 l-3.52 0 q-0.68 0 -1.12 -0.56 l-13.88 -19 l0 18.16 q0 0.56 -0.42 0.98 t-0.98 0.42 l-3 0 q-0.56 0 -0.98 -0.42 t-0.42 -0.98 l0 -26.56 q0 -0.56 0.42 -0.98 t0.98 -0.42 l3.48 0 q0.32 0 0.64 0.14 t0.48 0.42 l13.92 18.92 l0 -18.08 q0 -0.56 0.4 -0.98 t0.96 -0.42 l3.04 0 z M178.98000000000002 10 q0.6 0 1 0.42 t0.4 0.98 l0 2.88 q0 0.56 -0.4 0.98 t-1 0.42 l-14.76 0 l0 6.44 l13 0 q0.6 0 1 0.42 t0.4 0.98 l0 2.92 q0 0.56 -0.4 0.98 t-1 0.42 l-13 0 l0 10.12 q0 0.56 -0.42 0.98 t-0.98 0.42 l-3 0 q-0.56 0 -0.98 -0.42 t-0.42 -0.98 l0 -26.56 q0 -0.56 0.42 -0.98 t0.98 -0.42 l19.16 0 z M200.18400000000003 10.84 l11.2 26.44 q0.2 0.32 0.2 0.68 q0 0.56 -0.4 0.98 t-1 0.42 l-3.32 0 q-0.44 0 -0.78 -0.22 t-0.5 -0.62 l-2.92 -6.88 l-11.32 0 l-2.88 6.88 q-0.16 0.4 -0.5 0.62 t-0.78 0.22 l-3.32 0 q-0.36 0 -0.68 -0.18 t-0.5 -0.46 t-0.22 -0.62 t0.12 -0.66 l11.28 -26.6 q0.16 -0.4 0.5 -0.62 t0.78 -0.22 l3.76 0 q0.44 0 0.78 0.22 t0.5 0.62 z M197.02400000000003 18.12 l-3.32 7.96 l6.64 0 z M239.58800000000002 10 q0.56 0 0.98 0.42 t0.42 0.98 l0 15.12 q0 5.84 -3.56 9.5 t-9.14 3.66 t-9.14 -3.66 t-3.56 -9.5 l0 -15.12 q0 -0.56 0.42 -0.98 t0.98 -0.42 l3 0 q0.56 0 0.98 0.42 t0.42 0.98 l0 15.2 q0 3.72 2.12 5.68 q1.8 1.68 4.76 1.68 t4.8 -1.68 q2.12 -2 2.12 -5.68 l0 -15.2 q0 -0.56 0.4 -0.98 t0.96 -0.42 l3.04 0 z"/></g>
			</g>
		</svg>
	